<?xml version="1.0" standalone="no"?>
<!DOCTYPE svg PUBLIC "-//W3C//DTD SVG 20010904//EN"
 "http://www.w3.org/TR/2001/REC-SVG-20010904/DTD/svg10.dtd">
<svg version="1.0" xmlns="http://www.w3.org/2000/svg"
 width="1000.000000pt" height="1000.000000pt" viewBox="0 0 1000.000000 1000.000000"
 preserveAspectRatio="xMidYMid meet">

<g transform="translate(0.000000,1000.000000) scale(0.100000,-0.100000)"
fill="#000000" stroke="none">
<path d="M5114 7544 c-159 -174 -290 -320 -292 -325 -2 -5 121 -9 277 -9 l281
0 330 118 c181 64 330 119 330 122 -1 5 -613 402 -629 408 -5 1 -138 -140
-297 -314z m629 41 c133 -86 182 -122 172 -128 -8 -4 -133 -51 -277 -104
l-263 -96 -220 2 c-121 2 -221 4 -223 6 -2 2 106 122 239 268 l242 265 72 -47
c40 -25 156 -100 258 -166z"/>
<path d="M5925 7325 c-110 -40 -231 -84 -270 -98 l-70 -26 90 -2 c551 -11 765
-13 765 -9 0 3 -44 33 -97 67 -54 35 -125 80 -158 101 l-60 39 -200 -72z m275
-35 l75 -50 -197 0 c-109 0 -198 4 -198 8 0 7 214 90 235 91 6 0 44 -22 85
-49z"/>
<path d="M4790 7132 c0 -14 80 -226 89 -235 9 -9 745 -276 749 -272 3 3 -265
485 -277 496 -10 11 -561 21 -561 11z m532 -61 c14 -12 197 -345 193 -349 -3
-3 -139 43 -303 103 l-298 107 -27 72 c-15 40 -27 76 -27 79 0 9 452 -3 462
-12z"/>
<path d="M4928 6754 c11 -27 88 -233 172 -457 84 -224 154 -406 155 -405 14
17 389 617 392 628 3 11 -13 21 -59 37 -54 18 -611 219 -661 238 -17 7 -17 5
1 -41z m368 -145 c154 -56 281 -103 283 -105 3 -2 -230 -376 -294 -471 l-22
-33 -127 341 c-70 187 -130 347 -133 355 -3 8 -1 14 5 14 5 0 135 -46 288
-101z"/>
<path d="M3673 6623 c63 -115 534 -923 544 -935 12 -13 80 -31 127 -33 12 0
295 538 287 547 -7 7 -946 428 -956 428 -3 0 -4 -3 -2 -7z m500 -267 c201 -91
373 -168 381 -173 12 -6 -8 -51 -104 -236 -65 -126 -121 -231 -124 -234 -3 -3
-21 -2 -39 1 -34 6 -42 19 -248 374 -117 202 -221 382 -232 400 -10 17 -15 32
-10 32 5 0 174 -74 376 -164z"/>
<path d="M5486 6119 c-103 -165 -190 -307 -192 -317 -2 -9 27 -98 65 -197 l68
-180 149 -32 c81 -18 150 -30 153 -28 2 2 -6 213 -18 467 -12 255 -21 491 -21
526 0 34 -3 62 -7 61 -5 0 -93 -135 -197 -300z m175 -275 c11 -224 18 -410 17
-414 -2 -4 -50 3 -108 14 l-105 22 -62 164 c-34 90 -59 169 -55 176 49 81 288
452 290 449 2 -1 12 -186 23 -411z"/>
<path d="M5760 6389 c0 -38 51 -1043 52 -1045 7 -6 599 -126 603 -122 4 4
-637 1152 -651 1167 -2 2 -4 2 -4 0z m325 -667 c130 -233 235 -426 232 -429
-3 -3 -107 16 -231 43 l-225 47 -5 61 c-3 34 -10 169 -16 301 -5 132 -13 285
-16 340 -5 88 -4 98 9 80 7 -11 121 -210 252 -443z"/>
<path d="M4696 6147 c-7 -12 -38 -70 -69 -129 l-55 -107 372 -215 c204 -117
373 -212 374 -211 3 3 -121 342 -173 476 -6 15 -44 34 -328 160 l-107 48 -14
-22z m218 -123 c94 -42 176 -82 182 -88 6 -6 23 -45 39 -86 15 -41 42 -117 61
-168 19 -51 31 -91 27 -89 -5 3 -127 73 -273 157 -146 84 -275 159 -288 166
l-22 14 36 73 c37 72 52 97 62 97 2 0 82 -34 176 -76z"/>
<path d="M3082 5773 c35 -43 124 -151 197 -240 110 -134 139 -164 165 -168 72
-14 806 -121 806 -118 0 3 -313 374 -349 415 -5 5 -855 188 -876 188 -4 0 22
-35 57 -77z m560 -102 c210 -45 229 -51 251 -77 14 -16 72 -85 130 -154 59
-68 105 -125 104 -126 -1 -1 -103 13 -227 32 -124 18 -278 41 -342 50 l-117
17 -101 124 c-56 68 -123 149 -150 181 l-49 58 137 -28 c75 -16 239 -51 364
-77z"/>
<path d="M4482 5739 c-29 -56 -51 -103 -50 -104 5 -5 722 -155 725 -152 3 3
-586 344 -608 352 -10 3 -31 -27 -67 -96z m241 -59 c80 -46 145 -86 143 -87
-1 -1 -18 1 -37 6 -19 5 -95 21 -169 36 -74 15 -139 31 -143 35 -11 10 35 101
49 98 6 -2 77 -41 157 -88z"/>
<path d="M4037 5618 c11 -13 106 -125 212 -250 l193 -228 37 5 c20 3 286 32
591 65 581 63 643 70 638 76 -4 3 -1671 354 -1684 354 -4 0 2 -10 13 -22z
m345 -102 c117 -25 344 -72 503 -106 160 -34 335 -70 390 -81 55 -12 103 -24
107 -28 7 -6 -123 -21 -804 -95 l-117 -12 -156 183 c-85 101 -151 183 -146
183 5 0 105 -20 223 -44z"/>
<path d="M3518 5243 c17 -21 123 -150 236 -288 l206 -250 -123 -5 c-114 -5
-122 -6 -122 -25 0 -19 8 -20 146 -23 l146 -3 32 -39 c17 -21 31 -41 31 -44 0
-3 -170 -7 -377 -8 -370 -3 -378 -3 -378 -23 0 -20 8 -20 402 -23 l402 -2 45
-54 c25 -29 46 -56 46 -60 0 -3 -332 -7 -737 -8 -730 -3 -738 -3 -738 -23 0
-20 7 -20 2265 -20 2258 0 2265 0 2265 20 0 20 -8 20 -748 23 l-748 2 51 58
51 57 517 5 c509 5 517 5 517 25 0 20 -8 20 -488 25 l-488 5 43 42 43 42 115
3 c107 3 115 4 115 23 0 18 -8 20 -93 23 l-93 3 201 210 c111 116 199 213 196
216 -3 3 -45 14 -93 24 -48 10 -154 32 -236 49 l-147 30 -39 -19 c-43 -22
-594 -331 -599 -336 -2 -2 80 -110 182 -240 102 -130 186 -238 186 -241 0 -2
-20 -4 -44 -4 l-45 0 -172 220 c-95 121 -177 220 -182 220 -6 0 -187 -99 -404
-220 l-394 -221 -72 3 -72 3 217 120 c120 66 218 123 218 127 0 14 -433 518
-445 518 -7 0 -193 27 -415 60 -222 33 -405 60 -407 60 -3 0 9 -17 25 -37z
m449 -83 c186 -28 340 -53 344 -58 37 -40 378 -446 376 -448 -11 -9 -420 -234
-425 -234 -4 1 -119 138 -257 306 -137 168 -283 346 -323 395 -40 49 -68 89
-62 89 6 0 162 -23 347 -50z m2227 -25 c94 -19 171 -36 172 -38 1 -1 -77 -85
-174 -187 -98 -102 -238 -250 -313 -328 l-137 -144 -165 211 -166 210 192 107
c106 59 235 131 287 161 58 32 103 51 115 49 11 -3 96 -21 189 -41z m-786
-554 c79 -101 142 -185 139 -187 -2 -2 -220 -3 -485 -2 l-482 3 333 187 c182
102 337 185 342 184 6 -2 74 -85 153 -185z"/>
<path d="M5709 5206 c-2 -2 -269 -32 -592 -67 -323 -35 -593 -66 -599 -70 -6
-4 57 -86 152 -198 149 -175 164 -190 184 -179 69 36 903 502 911 509 8 8 -46
14 -56 5z m-254 -123 c-272 -153 -598 -334 -604 -336 -7 -2 -255 282 -249 284
2 1 899 103 943 108 6 0 -35 -25 -90 -56z"/>
<path d="M2833 4234 c-3 -8 -1 -20 4 -25 5 -5 223 -8 554 -7 536 3 544 3 544
23 0 20 -8 20 -548 23 -491 2 -548 1 -554 -14z"/>
<path d="M4363 4234 c-3 -8 -1 -20 4 -25 5 -5 194 -8 479 -7 461 3 469 3 469
23 0 20 -8 20 -473 23 -423 2 -473 1 -479 -14z"/>
<path d="M5893 4234 c-3 -8 -1 -20 4 -25 5 -5 223 -8 554 -7 536 3 544 3 544
23 0 20 -8 20 -548 23 -491 2 -548 1 -554 -14z"/>
<path d="M3303 4094 c-3 -8 -1 -20 4 -25 5 -5 301 -8 759 -7 741 3 749 3 749
23 0 20 -8 20 -753 23 -677 2 -753 1 -759 -14z"/>
<path d="M5113 4094 c-3 -8 -1 -20 4 -25 5 -5 341 -8 864 -7 846 3 854 3 854
23 0 20 -8 20 -858 23 -772 2 -858 1 -864 -14z"/>
<path d="M3903 3954 c-3 -8 -1 -20 4 -25 5 -5 431 -8 1099 -7 1081 3 1089 3
1089 23 0 20 -8 20 -1093 23 -986 2 -1093 1 -1099 -14z"/>
<path d="M4107 3510 c-134 -23 -220 -131 -220 -276 -1 -165 114 -276 284 -276
103 0 217 58 182 93 -5 5 -23 -1 -46 -16 -78 -53 -191 -52 -279 4 -125 80
-136 285 -20 381 78 65 190 74 286 25 33 -17 53 -22 59 -16 14 14 -6 36 -56
59 -51 24 -125 32 -190 22z"/>
<path d="M2340 3235 l0 -278 168 5 c181 5 210 12 251 64 25 32 28 111 6 153
-8 16 -33 38 -55 49 -36 18 -39 21 -21 27 36 11 63 61 63 116 -1 59 -19 91
-65 116 -26 14 -63 18 -189 21 l-158 4 0 -277z m291 235 c68 -19 101 -82 75
-145 -22 -53 -61 -65 -206 -65 l-120 0 0 110 0 110 108 0 c59 0 123 -5 143
-10z m59 -269 c49 -26 69 -81 47 -133 -25 -59 -60 -71 -219 -76 l-138 -5 0
117 0 116 138 0 c114 0 143 -3 172 -19z"/>
<path d="M2920 3235 l0 -275 211 2 211 3 31 73 31 72 165 -2 164 -3 31 -72
c25 -59 35 -73 54 -73 12 0 22 2 22 3 0 2 -56 125 -124 273 -107 232 -127 269
-148 272 -21 2 -33 -20 -148 -270 -69 -150 -126 -265 -128 -255 -3 15 -19 17
-163 17 l-159 0 0 255 0 255 -25 0 -25 0 0 -275z m721 68 l67 -148 -135 -3
c-75 -1 -138 -1 -140 2 -2 2 27 71 64 154 37 83 70 149 72 146 2 -2 35 -70 72
-151z"/>
<path d="M4500 3235 l0 -275 25 0 c24 0 25 2 25 73 l0 73 59 58 c32 32 63 56
68 53 5 -3 56 -60 114 -127 93 -107 138 -144 156 -127 3 3 -52 72 -122 152
l-128 147 117 117 c64 64 116 120 116 124 0 4 -10 7 -22 7 -17 0 -71 -50 -190
-172 l-167 -173 0 173 -1 172 -25 0 -25 0 0 -275z"/>
<path d="M5445 3490 c-23 -11 -48 -33 -58 -49 -20 -34 -22 -99 -5 -136 15 -33
80 -66 172 -89 82 -20 119 -38 140 -68 23 -33 19 -72 -10 -107 -49 -59 -170
-66 -263 -16 -51 28 -83 27 -60 -2 46 -54 208 -81 294 -49 54 21 81 53 90 105
8 51 -15 105 -55 130 -18 10 -70 29 -117 40 -111 28 -141 45 -159 87 -14 32
-13 39 3 72 26 54 72 74 154 69 36 -2 81 -12 99 -21 41 -20 50 -20 50 -1 0 50
-196 74 -275 35z"/>
<path d="M5913 3238 c86 -253 95 -273 117 -276 24 -2 28 7 104 230 43 128 82
237 86 241 4 5 44 -100 90 -232 111 -324 99 -325 219 25 50 146 91 270 91 275
0 5 -8 9 -19 9 -15 0 -33 -42 -101 -242 -46 -134 -84 -244 -84 -245 -1 -1 -40
108 -86 242 -108 314 -104 313 -186 78 -110 -319 -111 -321 -122 -293 -5 14
-42 123 -82 243 -67 199 -75 217 -96 217 -23 0 -21 -8 69 -272z"/>
<path d="M6748 3235 c-120 -262 -125 -276 -101 -273 20 2 30 16 56 76 l31 72
165 -2 164 -3 31 -72 c25 -59 35 -73 54 -73 12 0 22 2 22 3 0 2 -56 125 -124
273 -107 232 -127 269 -148 272 -21 2 -33 -20 -150 -273z m223 68 l67 -148
-135 -3 c-75 -1 -138 -1 -140 2 -2 2 27 71 64 154 37 83 70 149 72 146 2 -2
35 -70 72 -151z"/>
<path d="M7270 3235 l0 -275 25 0 25 0 0 236 0 236 185 -236 c129 -164 192
-236 205 -236 19 0 20 9 20 275 l0 275 -25 0 -25 0 -2 -231 -3 -231 -180 231
c-139 177 -185 230 -202 231 l-23 0 0 -275z"/>
</g>
</svg>
